<?xml version="1.0" encoding="UTF-8"?>
<!DOCTYPE svg PUBLIC "-//W3C//DTD SVG 1.1//EN" "http://www.w3.org/Graphics/SVG/1.1/DTD/svg11.dtd">
<svg xmlns="http://www.w3.org/2000/svg" version="1.1" width="94px" height="94px" style="shape-rendering:geometricPrecision; text-rendering:geometricPrecision; image-rendering:optimizeQuality; fill-rule:evenodd; clip-rule:evenodd" xmlns:xlink="http://www.w3.org/1999/xlink">
<g><path style="opacity:0.004" fill="#83c9ff" d="M 19.5,12.5 C 20.8333,13.1667 20.8333,13.1667 19.5,12.5 Z"/></g>
<g><path style="opacity:0.004" fill="#88f1fd" d="M 16.5,14.5 C 15.7611,14.631 15.0944,14.4643 14.5,14C 15.4368,13.3083 16.1034,13.475 16.5,14.5 Z"/></g>
<g><path style="opacity:0.004" fill="#a1d2fe" d="M 23.5,14.5 C 24.2506,13.4265 25.2506,13.2599 26.5,14C 25.552,14.4828 24.552,14.6495 23.5,14.5 Z"/></g>
<g><path style="opacity:1" fill="#6fcefe" d="M 16.5,14.5 C 20.1224,14.322 23.4557,14.9886 26.5,16.5C 22.3656,17.4849 18.0323,17.8182 13.5,17.5C 14.0998,16.1001 15.0998,15.1001 16.5,14.5 Z"/></g>
<g><path style="opacity:0.02" fill="#a3b3c6" d="M 62.5,16.5 C 63.8333,17.1667 63.8333,17.1667 62.5,16.5 Z"/></g>
<g><path style="opacity:0.012" fill="#aed2f8" d="M 13.5,17.5 C 13.5,17.8333 13.5,18.1667 13.5,18.5C 11.8008,18.6602 10.1341,18.4935 8.5,18C 10.0609,17.6824 11.2276,16.8491 12,15.5C 12.2784,16.4158 12.7784,17.0825 13.5,17.5 Z"/></g>
<g><path style="opacity:0.994" fill="#1e84f5" d="M 26.5,16.5 C 26.8333,16.5 27.1667,16.5 27.5,16.5C 27.5,16.8333 27.5,17.1667 27.5,17.5C 27.5,18.1667 27.5,18.8333 27.5,19.5C 22.8333,19.5 18.1667,19.5 13.5,19.5C 13.5,19.1667 13.5,18.8333 13.5,18.5C 13.5,18.1667 13.5,17.8333 13.5,17.5C 18.0323,17.8182 22.3656,17.4849 26.5,16.5 Z"/></g>
<g><path style="opacity:1" fill="#828c9d" d="M 57.5,16.5 C 51.7702,16.346 48.4368,19.0126 47.5,24.5C 45.556,25.8007 43.556,26.8007 41.5,27.5C 37.3953,29.0576 33.7287,31.3909 30.5,34.5C 26.6524,33.6128 22.8191,33.2795 19,33.5C 16,34.1667 13,34.8333 10,35.5C 8.87201,33.6547 8.37201,31.6547 8.5,29.5C 15.7997,28.2901 23.1331,27.1234 30.5,26C 33.8363,22.1443 37.8363,18.9776 42.5,16.5C 47.6523,15.1863 52.6523,15.1863 57.5,16.5 Z"/></g>
<g><path style="opacity:0.004" fill="#f9fcfe" d="M 4.5,20.5 C 5.83333,21.1667 5.83333,21.1667 4.5,20.5 Z"/></g>
<g><path style="opacity:0.999" fill="#bfcddd" d="M 57.5,12.5 C 50.6977,14.1735 43.6977,15.0069 36.5,15C 34.5,17.6667 32.5,20.3333 30.5,23C 22.1733,23.4997 13.84,23.6664 5.5,23.5C 6.85029,19.9049 9.51695,18.5715 13.5,19.5C 18.1667,19.5 22.8333,19.5 27.5,19.5C 28.8333,18.8333 28.8333,18.1667 27.5,17.5C 27.5,17.1667 27.5,16.8333 27.5,16.5C 28.4985,16.4128 29.6651,16.0795 31,15.5C 31.3333,16.1667 31.6667,16.8333 32,17.5C 33.5,14.6667 35.6667,12.5 38.5,11C 44.1667,10.3333 49.8333,10.3333 55.5,11C 56.4158,11.2784 57.0825,11.7784 57.5,12.5 Z"/></g>
<g><path style="opacity:0.999" fill="#6f7687" d="M 57.5,16.5 C 60.0442,17.7079 61.3775,19.7079 61.5,22.5C 69.1667,22.5 76.8333,22.5 84.5,22.5C 84.5,22.8333 84.5,23.1667 84.5,23.5C 83.596,24.209 83.2627,25.209 83.5,26.5C 81.8561,26.7135 80.3561,26.3802 79,25.5C 78.0053,26.0659 77.172,26.7326 76.5,27.5C 73.0897,27.3838 71.7564,29.0504 72.5,32.5C 71.7321,31.7375 71.2321,30.7375 71,29.5C 69.6361,30.2583 68.4695,29.7583 67.5,28C 67.8333,27.6667 68.1667,27.3333 68.5,27C 66.8632,26.3988 65.1966,25.8988 63.5,25.5C 61.4855,27.2093 59.8189,29.2093 58.5,31.5C 53.3116,28.4538 47.6449,27.1205 41.5,27.5C 43.556,26.8007 45.556,25.8007 47.5,24.5C 48.4368,19.0126 51.7702,16.346 57.5,16.5 Z"/></g>
<g><path style="opacity:1" fill="#8e9db1" d="M 57.5,12.5 C 58.806,14.4727 60.4727,16.1394 62.5,17.5C 69.9248,17.4254 77.5915,17.5921 85.5,18C 60.1667,18.6667 60.1667,19.3333 85.5,20C 86.3805,20.7083 87.0472,21.5416 87.5,22.5C 86.5,22.5 85.5,22.5 84.5,22.5C 76.8333,22.5 69.1667,22.5 61.5,22.5C 61.3775,19.7079 60.0442,17.7079 57.5,16.5C 52.6523,15.1863 47.6523,15.1863 42.5,16.5C 37.8363,18.9776 33.8363,22.1443 30.5,26C 23.1331,27.1234 15.7997,28.2901 8.5,29.5C 8.7271,27.0672 7.7271,25.4006 5.5,24.5C 5.5,24.1667 5.5,23.8333 5.5,23.5C 13.84,23.6664 22.1733,23.4997 30.5,23C 32.5,20.3333 34.5,17.6667 36.5,15C 43.6977,15.0069 50.6977,14.1735 57.5,12.5 Z"/></g>
<g><path style="opacity:1" fill="#d9d9e0" d="M 41.5,27.5 C 47.6449,27.1205 53.3116,28.4538 58.5,31.5C 60.1667,32.8333 61.8333,34.1667 63.5,35.5C 63.5,35.8333 63.5,36.1667 63.5,36.5C 63.5654,36.9382 63.3988,37.2716 63,37.5C 60.4855,33.9838 57.1522,31.6505 53,30.5C 49.5082,31.9359 46.0082,32.9359 42.5,33.5C 42.1667,33.5 41.8333,33.5 41.5,33.5C 36.9164,35.0823 33.5831,38.0823 31.5,42.5C 30.7659,43.7079 30.4326,45.0413 30.5,46.5C 29.71,47.6085 29.21,48.9419 29,50.5C 28.6667,47.8333 28.3333,45.1667 28,42.5C 27.0272,45.5787 26.1939,48.5787 25.5,51.5C 25.307,47.4338 25.6403,43.4338 26.5,39.5C 28.0627,38.0552 29.396,36.3885 30.5,34.5C 33.7287,31.3909 37.3953,29.0576 41.5,27.5 Z"/></g>
<g><path style="opacity:1" fill="#ceced4" d="M 76.5,27.5 C 77.9468,28.1342 78.6134,29.3009 78.5,31C 78.472,32.0698 78.1386,32.9032 77.5,33.5C 75.7085,33.634 74.0418,33.3007 72.5,32.5C 71.7564,29.0504 73.0897,27.3838 76.5,27.5 Z"/></g>
<g><path style="opacity:1" fill="#616979" d="M 72.5,32.5 C 74.0418,33.3007 75.7085,33.634 77.5,33.5C 73.7247,34.9227 73.7247,36.756 77.5,39C 77.1667,39.3333 76.8333,39.6667 76.5,40C 78.3734,42.2089 80.54,44.0422 83,45.5C 83.1762,49.6877 83.6762,53.6877 84.5,57.5C 84.5,57.8333 84.5,58.1667 84.5,58.5C 84.6653,62.1817 84.4986,65.8484 84,69.5C 80.0545,58.9423 75.0545,48.9423 69,39.5C 67.6667,37.5 66,35.8333 64,34.5C 63.6012,34.7284 63.4346,35.0618 63.5,35.5C 61.8333,34.1667 60.1667,32.8333 58.5,31.5C 59.8189,29.2093 61.4855,27.2093 63.5,25.5C 65.1966,25.8988 66.8632,26.3988 68.5,27C 68.1667,27.3333 67.8333,27.6667 67.5,28C 68.4695,29.7583 69.6361,30.2583 71,29.5C 71.2321,30.7375 71.7321,31.7375 72.5,32.5 Z"/></g>
<g><path style="opacity:1" fill="#c7c7d1" d="M 63.5,36.5 C 64.8333,38.5 66.1667,40.5 67.5,42.5C 68.3066,49.9415 66.6399,56.6082 62.5,62.5C 63.2711,59.4232 63.9377,56.5899 64.5,54C 63.3057,51.1116 62.3057,48.2783 61.5,45.5C 60.338,40.3373 57.338,36.6706 52.5,34.5C 49.2139,33.7929 45.8806,33.4595 42.5,33.5C 46.0082,32.9359 49.5082,31.9359 53,30.5C 57.1522,31.6505 60.4855,33.9838 63,37.5C 63.3988,37.2716 63.5654,36.9382 63.5,36.5 Z"/></g>
<g><path style="opacity:1" fill="#778291" d="M 5.5,24.5 C 7.7271,25.4006 8.7271,27.0672 8.5,29.5C 8.37201,31.6547 8.87201,33.6547 10,35.5C 13,34.8333 16,34.1667 19,33.5C 22.8191,33.2795 26.6524,33.6128 30.5,34.5C 29.396,36.3885 28.0627,38.0552 26.5,39.5C 26.2648,38.9033 25.7648,38.5699 25,38.5C 20.059,40.8604 14.8924,42.527 9.5,43.5C 8.83333,41.8333 8.16667,40.1667 7.5,38.5C 6.81815,39.2427 6.15149,39.9094 5.5,40.5C 5.5,35.1667 5.5,29.8333 5.5,24.5 Z"/></g>
<g><path style="opacity:1" fill="#906ad6" d="M 41.5,33.5 C 41.8333,33.5 42.1667,33.5 42.5,33.5C 45.8806,33.4595 49.2139,33.7929 52.5,34.5C 53.2899,35.7942 54.2899,36.9609 55.5,38C 53.9813,37.6692 52.648,37.8359 51.5,38.5C 50.8333,38.5 50.1667,38.5 49.5,38.5C 45.7865,37.0855 42.1198,37.4188 38.5,39.5C 38.3893,38.8826 38.056,38.3826 37.5,38C 39.3844,36.9513 40.7177,35.4513 41.5,33.5 Z"/></g>
<g><path style="opacity:0.904" fill="#4b5366" d="M 88.5,58.5 C 87.6981,57.0484 87.1981,55.3817 87,53.5C 86.6667,56.1667 86.3333,58.8333 86,61.5C 85.7679,60.2625 85.2679,59.2625 84.5,58.5C 84.5,58.1667 84.5,57.8333 84.5,57.5C 84.5,46.1667 84.5,34.8333 84.5,23.5C 84.5,23.1667 84.5,22.8333 84.5,22.5C 85.5,22.5 86.5,22.5 87.5,22.5C 88.3635,21.537 89.0302,21.537 89.5,22.5C 88.5205,34.4494 88.1872,46.4494 88.5,58.5 Z"/></g>
<g><path style="opacity:1" fill="#8224cb" d="M 49.5,38.5 C 47.1432,38.3367 44.8098,38.5034 42.5,39C 43.0891,40.8733 42.4224,42.54 40.5,44C 37.8934,46.1049 34.8934,46.9383 31.5,46.5C 31.5,47.8333 31.5,49.1667 31.5,50.5C 31.5,50.8333 31.5,51.1667 31.5,51.5C 30.5489,50.0813 30.2155,48.4147 30.5,46.5C 30.4326,45.0413 30.7659,43.7079 31.5,42.5C 34.2061,42.3122 36.5395,41.3122 38.5,39.5C 42.1198,37.4188 45.7865,37.0855 49.5,38.5 Z"/></g>
<g><path style="opacity:1" fill="#596172" d="M 84.5,23.5 C 84.5,34.8333 84.5,46.1667 84.5,57.5C 83.6762,53.6877 83.1762,49.6877 83,45.5C 80.54,44.0422 78.3734,42.2089 76.5,40C 76.8333,39.6667 77.1667,39.3333 77.5,39C 73.7247,36.756 73.7247,34.9227 77.5,33.5C 78.1386,32.9032 78.472,32.0698 78.5,31C 78.6134,29.3009 77.9468,28.1342 76.5,27.5C 77.172,26.7326 78.0053,26.0659 79,25.5C 80.3561,26.3802 81.8561,26.7135 83.5,26.5C 83.2627,25.209 83.596,24.209 84.5,23.5 Z"/></g>
<g><path style="opacity:1" fill="#ba8dd9" d="M 41.5,33.5 C 40.7177,35.4513 39.3844,36.9513 37.5,38C 38.056,38.3826 38.3893,38.8826 38.5,39.5C 36.5395,41.3122 34.2061,42.3122 31.5,42.5C 33.5831,38.0823 36.9164,35.0823 41.5,33.5 Z"/></g>
<g><path style="opacity:0.995" fill="#6c7583" d="M 26.5,39.5 C 25.6403,43.4338 25.307,47.4338 25.5,51.5C 24.9618,49.1944 24.2952,47.5277 23.5,46.5C 18.987,48.8264 14.3203,51.1597 9.5,53.5C 8.75675,52.0921 7.92342,50.7588 7,49.5C 6.78997,51.0581 6.28997,52.3915 5.5,53.5C 5.5,49.1667 5.5,44.8333 5.5,40.5C 6.15149,39.9094 6.81815,39.2427 7.5,38.5C 8.16667,40.1667 8.83333,41.8333 9.5,43.5C 14.8924,42.527 20.059,40.8604 25,38.5C 25.7648,38.5699 26.2648,38.9033 26.5,39.5 Z"/></g>
<g><path style="opacity:1" fill="#616775" d="M 23.5,46.5 C 22.9601,56.9139 18.2934,64.9139 9.5,70.5C 8.7022,68.9223 8.2022,67.2556 8,65.5C 6.59491,68.6188 6.09491,71.9521 6.5,75.5C 6.16667,75.5 5.83333,75.5 5.5,75.5C 5.5,68.1667 5.5,60.8333 5.5,53.5C 6.28997,52.3915 6.78997,51.0581 7,49.5C 7.92342,50.7588 8.75675,52.0921 9.5,53.5C 14.3203,51.1597 18.987,48.8264 23.5,46.5 Z"/></g>
<g><path style="opacity:1" fill="#6711cc" d="M 49.5,38.5 C 50.2039,47.1331 46.2039,51.7997 37.5,52.5C 35.3069,52.2814 33.3069,51.6148 31.5,50.5C 31.5,49.1667 31.5,47.8333 31.5,46.5C 34.8934,46.9383 37.8934,46.1049 40.5,44C 42.4224,42.54 43.0891,40.8733 42.5,39C 44.8098,38.5034 47.1432,38.3367 49.5,38.5 Z"/></g>
<g><path style="opacity:1" fill="#5137ce" d="M 49.5,38.5 C 50.1667,38.5 50.8333,38.5 51.5,38.5C 52.5,39.1667 53.5,39.8333 54.5,40.5C 55.0985,50.9057 50.0985,56.239 39.5,56.5C 37.1817,56.0029 34.8484,55.6695 32.5,55.5C 31.7659,54.2921 31.4326,52.9587 31.5,51.5C 31.5,51.1667 31.5,50.8333 31.5,50.5C 33.3069,51.6148 35.3069,52.2814 37.5,52.5C 46.2039,51.7997 50.2039,47.1331 49.5,38.5 Z"/></g>
<g><path style="opacity:1" fill="#455ace" d="M 54.5,40.5 C 55.5,40.8333 56.1667,41.5 56.5,42.5C 54.6635,54.9674 47.3301,60.3008 34.5,58.5C 33.0937,58.0269 32.427,57.0269 32.5,55.5C 34.8484,55.6695 37.1817,56.0029 39.5,56.5C 50.0985,56.239 55.0985,50.9057 54.5,40.5 Z"/></g>
<g><path style="opacity:1" fill="#3d6dce" d="M 56.5,42.5 C 57.4013,43.2905 58.0679,44.2905 58.5,45.5C 58.6567,46.8734 58.49,48.2068 58,49.5C 54.8604,52.6396 51.6937,55.8063 48.5,59C 44.3728,61.5275 40.0395,62.0275 35.5,60.5C 34.6618,60.1583 34.3284,59.4916 34.5,58.5C 47.3301,60.3008 54.6635,54.9674 56.5,42.5 Z"/></g>
<g><path style="opacity:1" fill="#4e5666" d="M 69.5,47.5 C 70.6431,47.9081 71.6431,48.5748 72.5,49.5C 75.9036,55.7776 77.4036,62.4443 77,69.5C 75.5946,71.1911 74.4279,73.0245 73.5,75C 75.7078,75.1909 77.7078,75.6909 79.5,76.5C 72.1667,76.5 64.8333,76.5 57.5,76.5C 62.1411,72.6739 65.9744,68.0073 69,62.5C 70.8273,57.5545 70.994,52.5545 69.5,47.5 Z"/></g>
<g><path style="opacity:0.016" fill="#6d737c" d="M 3.5,22.5 C 4.6621,40.662 4.82877,58.9954 4,77.5C 3.50006,59.1697 3.33339,40.8364 3.5,22.5 Z"/></g>
<g><path style="opacity:1" fill="#585c69" d="M 25.5,51.5 C 25.6287,53.2161 25.962,54.8828 26.5,56.5C 24.8869,62.7464 25.8869,68.7464 29.5,74.5C 21.8622,75.4975 14.1955,75.8308 6.5,75.5C 6.09491,71.9521 6.59491,68.6188 8,65.5C 8.2022,67.2556 8.7022,68.9223 9.5,70.5C 18.2934,64.9139 22.9601,56.9139 23.5,46.5C 24.2952,47.5277 24.9618,49.1944 25.5,51.5 Z"/></g>
<g><path style="opacity:0.999" fill="#566072" d="M 84.5,58.5 C 85.2679,59.2625 85.7679,60.2625 86,61.5C 86.3333,58.8333 86.6667,56.1667 87,53.5C 87.1981,55.3817 87.6981,57.0484 88.5,58.5C 88.5,64.5 88.5,70.5 88.5,76.5C 88.1667,76.5 87.8333,76.5 87.5,76.5C 84.8333,76.5 82.1667,76.5 79.5,76.5C 77.7078,75.6909 75.7078,75.1909 73.5,75C 74.4279,73.0245 75.5946,71.1911 77,69.5C 77.4036,62.4443 75.9036,55.7776 72.5,49.5C 71.6431,48.5748 70.6431,47.9081 69.5,47.5C 69.5979,45.4471 68.9313,43.7804 67.5,42.5C 66.1667,40.5 64.8333,38.5 63.5,36.5C 63.5,36.1667 63.5,35.8333 63.5,35.5C 63.4346,35.0618 63.6012,34.7284 64,34.5C 66,35.8333 67.6667,37.5 69,39.5C 75.0545,48.9423 80.0545,58.9423 84,69.5C 84.4986,65.8484 84.6653,62.1817 84.5,58.5 Z"/></g>
<g><path style="opacity:1" fill="#429bd2" d="M 52.5,34.5 C 57.338,36.6706 60.338,40.3373 61.5,45.5C 61.5,48.1667 61.5,50.8333 61.5,53.5C 57.2489,60.4681 50.9156,64.1347 42.5,64.5C 41.5084,64.6716 40.8417,64.3382 40.5,63.5C 48.8604,62.9876 55.0271,58.9876 59,51.5C 59.7891,49.2884 59.6225,47.2884 58.5,45.5C 58.0679,44.2905 57.4013,43.2905 56.5,42.5C 56.1667,41.5 55.5,40.8333 54.5,40.5C 53.5,39.8333 52.5,39.1667 51.5,38.5C 52.648,37.8359 53.9813,37.6692 55.5,38C 54.2899,36.9609 53.2899,35.7942 52.5,34.5 Z"/></g>
<g><path style="opacity:1" fill="#c0c3ce" d="M 30.5,46.5 C 30.2155,48.4147 30.5489,50.0813 31.5,51.5C 31.4326,52.9587 31.7659,54.2921 32.5,55.5C 32.427,57.0269 33.0937,58.0269 34.5,58.5C 34.3284,59.4916 34.6618,60.1583 35.5,60.5C 36.8993,61.8897 38.5659,62.8897 40.5,63.5C 40.8417,64.3382 41.5084,64.6716 42.5,64.5C 51.85,66.2558 58.1834,62.5891 61.5,53.5C 61.5,50.8333 61.5,48.1667 61.5,45.5C 62.3057,48.2783 63.3057,51.1116 64.5,54C 63.9377,56.5899 63.2711,59.4232 62.5,62.5C 51.0314,73.4193 39.8648,73.0859 29,61.5C 28.1534,59.8068 27.3201,58.1401 26.5,56.5C 25.962,54.8828 25.6287,53.2161 25.5,51.5C 26.1939,48.5787 27.0272,45.5787 28,42.5C 28.3333,45.1667 28.6667,47.8333 29,50.5C 29.21,48.9419 29.71,47.6085 30.5,46.5 Z"/></g>
<g><path style="opacity:1" fill="#5fbdde" d="M 61.5,53.5 C 58.1834,62.5891 51.85,66.2558 42.5,64.5C 50.9156,64.1347 57.2489,60.4681 61.5,53.5 Z"/></g>
<g><path style="opacity:1" fill="#3583cf" d="M 58.5,45.5 C 59.6225,47.2884 59.7891,49.2884 59,51.5C 55.0271,58.9876 48.8604,62.9876 40.5,63.5C 38.5659,62.8897 36.8993,61.8897 35.5,60.5C 40.0395,62.0275 44.3728,61.5275 48.5,59C 51.6937,55.8063 54.8604,52.6396 58,49.5C 58.49,48.2068 58.6567,46.8734 58.5,45.5 Z"/></g>
<g><path style="opacity:0.999" fill="#41444d" d="M 67.5,42.5 C 68.9313,43.7804 69.5979,45.4471 69.5,47.5C 70.994,52.5545 70.8273,57.5545 69,62.5C 65.9744,68.0073 62.1411,72.6739 57.5,76.5C 41.1667,76.5 24.8333,76.5 8.5,76.5C 7.50838,76.3284 6.84171,76.6618 6.5,77.5C 5.66175,77.1583 5.32842,76.4916 5.5,75.5C 5.83333,75.5 6.16667,75.5 6.5,75.5C 14.1955,75.8308 21.8622,75.4975 29.5,74.5C 25.8869,68.7464 24.8869,62.7464 26.5,56.5C 27.3201,58.1401 28.1534,59.8068 29,61.5C 39.8648,73.0859 51.0314,73.4193 62.5,62.5C 66.6399,56.6082 68.3066,49.9415 67.5,42.5 Z"/></g>
<g><path style="opacity:0.008" fill="#3e4142" d="M 88.5,76.5 C 89.8333,77.1667 89.8333,77.1667 88.5,76.5 Z"/></g>
<g><path style="opacity:0.843" fill="#3a3533" d="M 8.5,76.5 C 16.6566,77.3294 24.9899,77.8294 33.5,78C 32.8333,78.3333 32.1667,78.6667 31.5,79C 49.1635,79.4999 66.8302,79.6666 84.5,79.5C 84.5,80.1667 84.8333,80.5 85.5,80.5C 60.4131,80.5247 35.0797,80.5247 9.5,80.5C 8.30646,79.7281 7.30646,78.7281 6.5,77.5C 6.84171,76.6618 7.50838,76.3284 8.5,76.5 Z"/></g>
<g><path style="opacity:1" fill="#3e4045" d="M 8.5,76.5 C 24.8333,76.5 41.1667,76.5 57.5,76.5C 64.8333,76.5 72.1667,76.5 79.5,76.5C 82.1667,76.5 84.8333,76.5 87.5,76.5C 87.5,76.8333 87.5,77.1667 87.5,77.5C 86.8333,77.5 86.5,77.8333 86.5,78.5C 85.8333,78.5 85.5,78.8333 85.5,79.5C 85.1667,79.5 84.8333,79.5 84.5,79.5C 66.8302,79.6666 49.1635,79.4999 31.5,79C 32.1667,78.6667 32.8333,78.3333 33.5,78C 24.9899,77.8294 16.6566,77.3294 8.5,76.5 Z"/></g>
<g><path style="opacity:0.008" fill="#323340" d="M 87.5,77.5 C 87.8333,77.5 88.1667,77.5 88.5,77.5C 88.3147,78.1701 87.9813,78.1701 87.5,77.5 Z"/></g>
<g><path style="opacity:0.008" fill="#515465" d="M 86.5,78.5 C 86.8333,78.5 87.1667,78.5 87.5,78.5C 87.3147,79.1701 86.9813,79.1701 86.5,78.5 Z"/></g>
<g><path style="opacity:0.008" fill="#272831" d="M 85.5,79.5 C 85.8333,79.5 86.1667,79.5 86.5,79.5C 86.3147,80.1701 85.9813,80.1701 85.5,79.5 Z"/></g>
<g><path style="opacity:0.008" fill="#481c1c" d="M 9.5,80.5 C 9.10343,81.525 8.43677,81.6917 7.5,81C 8.09442,80.5357 8.76109,80.369 9.5,80.5 Z"/></g>
</svg>
