<?xml version="1.0" encoding="UTF-8"?>
<!DOCTYPE svg PUBLIC "-//W3C//DTD SVG 1.1//EN" "http://www.w3.org/Graphics/SVG/1.1/DTD/svg11.dtd">
<svg xmlns="http://www.w3.org/2000/svg" version="1.1" width="48px" height="48px" style="shape-rendering:geometricPrecision; text-rendering:geometricPrecision; image-rendering:optimizeQuality; fill-rule:evenodd; clip-rule:evenodd" xmlns:xlink="http://www.w3.org/1999/xlink">
<g><path style="opacity:1" fill="#d08e01" d="M 25.5,10.5 C 23.9897,11.8361 22.3231,13.0027 20.5,14C 14.5092,14.4995 8.50924,14.6662 2.5,14.5C 2.5,11.8333 2.5,9.16667 2.5,6.5C 8.84209,6.33379 15.1754,6.50046 21.5,7C 22.7305,8.40476 24.0639,9.57143 25.5,10.5 Z"/></g>
<g><path style="opacity:1" fill="#fed45d" d="M 25.5,10.5 C 31.8333,10.5 38.1667,10.5 44.5,10.5C 44.5,13.1667 44.5,15.8333 44.5,18.5C 30.5,18.5 16.5,18.5 2.5,18.5C 2.5,17.1667 2.5,15.8333 2.5,14.5C 8.50924,14.6662 14.5092,14.4995 20.5,14C 22.3231,13.0027 23.9897,11.8361 25.5,10.5 Z"/></g>
<g><path style="opacity:1" fill="#fecf4e" d="M 2.5,18.5 C 16.5,18.5 30.5,18.5 44.5,18.5C 44.5,22.1667 44.5,25.8333 44.5,29.5C 43.1667,29.1667 41.8333,28.8333 40.5,28.5C 37.3728,27.0399 34.3728,27.3732 31.5,29.5C 22.0144,28.5062 12.3478,28.1729 2.5,28.5C 2.5,25.1667 2.5,21.8333 2.5,18.5 Z"/></g>
<g><path style="opacity:1" fill="#128c4a" d="M 40.5,28.5 C 41.8333,28.8333 43.1667,29.1667 44.5,29.5C 45.2719,30.6935 46.2719,31.6935 47.5,32.5C 47.5,35.8333 47.5,39.1667 47.5,42.5C 45.8333,44.1667 44.1667,45.8333 42.5,47.5C 41.1667,47.5 39.8333,47.5 38.5,47.5C 38.5,45.8333 38.5,44.1667 38.5,42.5C 38.5,41.1667 38.5,39.8333 38.5,38.5C 43.8333,37.8333 43.8333,37.1667 38.5,36.5C 38.5,35.1667 38.5,33.8333 38.5,32.5C 38.1568,30.5168 38.8235,29.1834 40.5,28.5 Z"/></g>
<g><path style="opacity:1" fill="#fbfdfc" d="M 38.5,32.5 C 38.5,33.8333 38.5,35.1667 38.5,36.5C 43.8333,37.1667 43.8333,37.8333 38.5,38.5C 38.5,39.8333 38.5,41.1667 38.5,42.5C 36.8235,41.8166 36.1568,40.4832 36.5,38.5C 31.1667,37.8333 31.1667,37.1667 36.5,36.5C 36.1568,34.5168 36.8235,33.1834 38.5,32.5 Z"/></g>
<g><path style="opacity:1" fill="#fdc734" d="M 2.5,28.5 C 12.3478,28.1729 22.0144,28.5062 31.5,29.5C 27.9906,32.2391 26.6572,35.9057 27.5,40.5C 19.1667,40.5 10.8333,40.5 2.5,40.5C 2.5,36.5 2.5,32.5 2.5,28.5 Z"/></g>
<g><path style="opacity:0.951" fill="#21a059" d="M 40.5,28.5 C 38.8235,29.1834 38.1568,30.5168 38.5,32.5C 36.8235,33.1834 36.1568,34.5168 36.5,36.5C 31.1667,37.1667 31.1667,37.8333 36.5,38.5C 36.1568,40.4832 36.8235,41.8166 38.5,42.5C 38.5,44.1667 38.5,45.8333 38.5,47.5C 36.5,47.5 34.5,47.5 32.5,47.5C 30.1,45.7036 28.4333,43.3702 27.5,40.5C 26.6572,35.9057 27.9906,32.2391 31.5,29.5C 34.3728,27.3732 37.3728,27.0399 40.5,28.5 Z"/></g>
</svg>
