<?xml version="1.0" encoding="UTF-8"?>
<!DOCTYPE svg PUBLIC "-//W3C//DTD SVG 1.1//EN" "http://www.w3.org/Graphics/SVG/1.1/DTD/svg11.dtd">
<svg xmlns="http://www.w3.org/2000/svg" version="1.1" width="94px" height="94px" style="shape-rendering:geometricPrecision; text-rendering:geometricPrecision; image-rendering:optimizeQuality; fill-rule:evenodd; clip-rule:evenodd" xmlns:xlink="http://www.w3.org/1999/xlink">
<g><path style="opacity:0.008" fill="#fefe91" d="M 11.5,6.5 C 30.9957,5.33759 50.6624,5.17092 70.5,6C 50.8362,6.49995 31.1695,6.66662 11.5,6.5 Z"/></g>
<g><path style="opacity:0.592" fill="#fefcc6" d="M 70.5,8.5 C 50.6596,8.1696 30.9929,8.50293 11.5,9.5C 10.1667,10.1667 9.16667,11.1667 8.5,12.5C 8.16667,12.5 7.83333,12.5 7.5,12.5C 7.85883,10.629 8.85883,9.12901 10.5,8C 30.6709,7.17085 50.6709,7.33752 70.5,8.5 Z"/></g>
<g><path style="opacity:1" fill="#fdf396" d="M 11.5,9.5 C 30.9929,8.50293 50.6596,8.1696 70.5,8.5C 72.5,8.5 73.5,9.5 73.5,11.5C 72.8333,11.1667 72.1667,10.8333 71.5,10.5C 51.6736,9.50288 31.6736,9.16955 11.5,9.5 Z"/></g>
<g><path style="opacity:0.016" fill="#eac6a0" d="M 74.5,11.5 C 74.369,10.7611 74.5357,10.0944 75,9.5C 75.6917,10.4368 75.525,11.1034 74.5,11.5 Z"/></g>
<g><path style="opacity:0.999" fill="#feda56" d="M 11.5,9.5 C 31.6736,9.16955 51.6736,9.50288 71.5,10.5C 65.1354,10.2936 58.8021,10.627 52.5,11.5C 46.5482,15.6018 40.2149,19.1018 33.5,22C 29.2378,23.1569 24.9045,23.9903 20.5,24.5C 18.7956,23.9319 17.2956,23.9319 16,24.5C 13.6877,24.0449 11.6877,23.0449 10,21.5C 9.66667,22.5 9.33333,23.5 9,24.5C 8.50115,20.5138 8.33449,16.5138 8.5,12.5C 9.16667,11.1667 10.1667,10.1667 11.5,9.5 Z"/></g>
<g><path style="opacity:1" fill="#f8cd4a" d="M 71.5,10.5 C 67.3528,11.3247 63.0195,11.8247 58.5,12C 58.8333,12.3333 59.1667,12.6667 59.5,13C 58.6919,13.3076 58.0253,13.8076 57.5,14.5C 58.7914,15.5272 58.7914,16.5272 57.5,17.5C 48.9838,18.5434 47.3171,22.5434 52.5,29.5C 48.5,32.1667 44.5,34.8333 40.5,37.5C 37.9974,35.1673 35.3307,33.0007 32.5,31C 30.8333,30.3333 29.1667,30.3333 27.5,31C 22.6643,34.6695 18.331,38.8362 14.5,43.5C 12.5,45.1667 10.5,46.8333 8.5,48.5C 8.16667,48.5 7.83333,48.5 7.5,48.5C 7.5,36.5 7.5,24.5 7.5,12.5C 7.83333,12.5 8.16667,12.5 8.5,12.5C 8.33449,16.5138 8.50115,20.5138 9,24.5C 9.33333,23.5 9.66667,22.5 10,21.5C 11.6877,23.0449 13.6877,24.0449 16,24.5C 17.2956,23.9319 18.7956,23.9319 20.5,24.5C 24.9045,23.9903 29.2378,23.1569 33.5,22C 40.2149,19.1018 46.5482,15.6018 52.5,11.5C 58.8021,10.627 65.1354,10.2936 71.5,10.5 Z"/></g>
<g><path style="opacity:1" fill="#f2c549" d="M 71.5,10.5 C 72.1667,10.8333 72.8333,11.1667 73.5,11.5C 72.8495,25.5982 72.1828,39.5982 71.5,53.5C 66.3687,48.8698 61.3687,44.0365 56.5,39C 54.5,38.3333 52.5,38.3333 50.5,39C 48.9625,40.7073 47.2959,42.2073 45.5,43.5C 43.8333,41.5 42.1667,39.5 40.5,37.5C 44.5,34.8333 48.5,32.1667 52.5,29.5C 58.1696,29.6608 61.0029,26.9942 61,21.5C 60.34,19.6763 59.1733,18.343 57.5,17.5C 58.7914,16.5272 58.7914,15.5272 57.5,14.5C 58.0253,13.8076 58.6919,13.3076 59.5,13C 59.1667,12.6667 58.8333,12.3333 58.5,12C 63.0195,11.8247 67.3528,11.3247 71.5,10.5 Z"/></g>
<g><path style="opacity:0.004" fill="#b4ab97" d="M 75.5,12.5 C 76.2344,13.8775 76.9011,15.3775 77.5,17C 77.1667,17.1667 76.8333,17.3333 76.5,17.5C 75.5481,15.9547 75.2148,14.288 75.5,12.5 Z"/></g>
<g><path style="opacity:1" fill="#fefbf3" d="M 57.5,17.5 C 59.1733,18.343 60.34,19.6763 61,21.5C 61.0029,26.9942 58.1696,29.6608 52.5,29.5C 47.3171,22.5434 48.9838,18.5434 57.5,17.5 Z"/></g>
<g><path style="opacity:0.016" fill="#337dd3" d="M 85.5,30.5 C 85.3359,27.8127 85.5026,25.146 86,22.5C 86.8007,25.367 86.6341,28.0336 85.5,30.5 Z"/></g>
<g><path style="opacity:0.998" fill="#317fd3" d="M 74.5,18.5 C 82.5517,18.5526 85.885,22.5526 84.5,30.5C 83.5386,32.2646 83.2053,34.2646 83.5,36.5C 82.1667,38.1667 82.1667,39.8333 83.5,41.5C 83.7947,43.7354 83.4614,45.7354 82.5,47.5C 82.1667,40.8333 81.8333,40.8333 81.5,47.5C 80.5386,49.2646 80.2053,51.2646 80.5,53.5C 79.1667,55.1667 79.1667,56.8333 80.5,58.5C 80.5076,64.2076 80.0076,64.5409 79,59.5C 78.5065,61.1341 78.3398,62.8008 78.5,64.5C 77.596,65.209 77.2627,66.209 77.5,67.5C 76.1667,66.1667 74.8333,64.8333 73.5,63.5C 73.5,60.8333 73.5,58.1667 73.5,55.5C 73.1714,42.9887 73.5048,30.6554 74.5,18.5 Z"/></g>
<g><path style="opacity:0.008" fill="#3a7ed8" d="M 84.5,30.5 C 84.8333,30.5 85.1667,30.5 85.5,30.5C 85.1667,37.1667 84.8333,37.1667 84.5,30.5 Z"/></g>
<g><path style="opacity:0.004" fill="#2e78d1" d="M 83.5,36.5 C 84.8333,38.1667 84.8333,39.8333 83.5,41.5C 83.5,39.8333 83.5,38.1667 83.5,36.5 Z"/></g>
<g><path style="opacity:1" fill="#ca4c28" d="M 40.5,37.5 C 42.1667,39.5 43.8333,41.5 45.5,43.5C 45.5,43.8333 45.5,44.1667 45.5,44.5C 39.9968,45.0622 34.1634,45.3955 28,45.5C 23.5,45.3333 19,45.1667 14.5,45C 15.7383,44.31 15.7383,43.81 14.5,43.5C 18.331,38.8362 22.6643,34.6695 27.5,31C 29.1667,30.3333 30.8333,30.3333 32.5,31C 35.3307,33.0007 37.9974,35.1673 40.5,37.5 Z"/></g>
<g><path style="opacity:1" fill="#da6634" d="M 71.5,53.5 C 71.8333,54.5 72.5,55.1667 73.5,55.5C 73.5,58.1667 73.5,60.8333 73.5,63.5C 73.8016,66.0593 73.4682,68.3926 72.5,70.5C 71.8333,70.5 71.5,70.1667 71.5,69.5C 68.5,65.8333 65.1667,62.5 61.5,59.5C 59.8333,57.1667 57.8333,55.1667 55.5,53.5C 52.7689,49.7657 49.4356,46.7657 45.5,44.5C 45.5,44.1667 45.5,43.8333 45.5,43.5C 47.2959,42.2073 48.9625,40.7073 50.5,39C 52.5,38.3333 54.5,38.3333 56.5,39C 61.3687,44.0365 66.3687,48.8698 71.5,53.5 Z"/></g>
<g><path style="opacity:1" fill="#bd3d24" d="M 14.5,43.5 C 15.7383,43.81 15.7383,44.31 14.5,45C 19,45.1667 23.5,45.3333 28,45.5C 34.1634,45.3955 39.9968,45.0622 45.5,44.5C 49.4356,46.7657 52.7689,49.7657 55.5,53.5C 51.3303,54.1368 47.1636,54.8034 43,55.5C 34.8526,55.5958 26.6859,55.2625 18.5,54.5C 14.9023,54.5906 11.569,55.2573 8.5,56.5C 8.5,53.8333 8.5,51.1667 8.5,48.5C 10.5,46.8333 12.5,45.1667 14.5,43.5 Z"/></g>
<g><path style="opacity:1" fill="#d19c4c" d="M 73.5,11.5 C 73.8333,11.5 74.1667,11.5 74.5,11.5C 74.5,13.8333 74.5,16.1667 74.5,18.5C 73.5048,30.6554 73.1714,42.9887 73.5,55.5C 72.5,55.1667 71.8333,54.5 71.5,53.5C 72.1828,39.5982 72.8495,25.5982 73.5,11.5 Z"/></g>
<g><path style="opacity:0.008" fill="#4286e6" d="M 81.5,47.5 C 81.8333,47.5 82.1667,47.5 82.5,47.5C 82.1667,54.1667 81.8333,54.1667 81.5,47.5 Z"/></g>
<g><path style="opacity:1" fill="#b33522" d="M 55.5,53.5 C 57.8333,55.1667 59.8333,57.1667 61.5,59.5C 45.6707,62.913 29.1707,63.2463 12,60.5C 10.6739,60.7549 9.67386,61.4216 9,62.5C 8.50454,60.5273 8.33788,58.5273 8.5,56.5C 11.569,55.2573 14.9023,54.5906 18.5,54.5C 26.6859,55.2625 34.8526,55.5958 43,55.5C 47.1636,54.8034 51.3303,54.1368 55.5,53.5 Z"/></g>
<g><path style="opacity:0.008" fill="#d27522" d="M 6.5,71.5 C 5.33745,51.3375 5.17078,31.0042 6,10.5C 6.49996,30.8306 6.66662,51.1639 6.5,71.5 Z"/></g>
<g><path style="opacity:0.008" fill="#3c8cd2" d="M 80.5,53.5 C 81.8333,55.1667 81.8333,56.8333 80.5,58.5C 80.5,56.8333 80.5,55.1667 80.5,53.5 Z"/></g>
<g><path style="opacity:1" fill="#a62d20" d="M 7.5,48.5 C 7.83333,48.5 8.16667,48.5 8.5,48.5C 8.5,51.1667 8.5,53.8333 8.5,56.5C 8.33788,58.5273 8.50454,60.5273 9,62.5C 9.67386,61.4216 10.6739,60.7549 12,60.5C 29.1707,63.2463 45.6707,62.913 61.5,59.5C 65.1667,62.5 68.5,65.8333 71.5,69.5C 61.3937,70.8093 51.0603,71.476 40.5,71.5C 30.5,71.3333 20.5,71.1667 10.5,71C 9.47344,70.4867 8.47344,69.9867 7.5,69.5C 7.5,62.5 7.5,55.5 7.5,48.5 Z"/></g>
<g><path style="opacity:0.008" fill="#3192bb" d="M 78.5,64.5 C 79.6129,65.9464 79.7796,67.6131 79,69.5C 78.5065,67.8659 78.3398,66.1992 78.5,64.5 Z"/></g>
<g><path style="opacity:1" fill="#812017" d="M 7.5,69.5 C 8.47344,69.9867 9.47344,70.4867 10.5,71C 20.5,71.1667 30.5,71.3333 40.5,71.5C 51.0603,71.476 61.3937,70.8093 71.5,69.5C 71.5,70.1667 71.8333,70.5 72.5,70.5C 72.5,72.5 71.5,73.5 69.5,73.5C 49.1398,73.7861 28.8065,73.4527 8.5,72.5C 8.5,71.8333 8.16667,71.5 7.5,71.5C 7.5,70.8333 7.5,70.1667 7.5,69.5 Z"/></g>
<g><path style="opacity:1" fill="#278ab2" d="M 73.5,63.5 C 74.8333,64.8333 76.1667,66.1667 77.5,67.5C 77.5,68.5 77.5,69.5 77.5,70.5C 76.5489,71.9187 76.2155,73.5853 76.5,75.5C 75.5489,76.9187 75.2155,78.5853 75.5,80.5C 74.6618,80.8417 74.3284,81.5084 74.5,82.5C 74.1667,82.5 73.8333,82.5 73.5,82.5C 71.686,80.0347 70.3527,77.368 69.5,74.5C 69.5,74.1667 69.5,73.8333 69.5,73.5C 71.5,73.5 72.5,72.5 72.5,70.5C 73.4682,68.3926 73.8016,66.0593 73.5,63.5 Z"/></g>
<g><path style="opacity:0.004" fill="#683228" d="M 6.5,71.5 C 6.83333,71.5 7.16667,71.5 7.5,71.5C 7.16667,74.1667 6.83333,74.1667 6.5,71.5 Z"/></g>
<g><path style="opacity:0.999" fill="#501a15" d="M 8.5,72.5 C 28.8065,73.4527 49.1398,73.7861 69.5,73.5C 69.5,73.8333 69.5,74.1667 69.5,74.5C 69.1667,74.5 68.8333,74.5 68.5,74.5C 49.8333,74.5 31.1667,74.5 12.5,74.5C 10.847,74.3404 9.51369,73.6737 8.5,72.5 Z"/></g>
<g><path style="opacity:0.012" fill="#2e8cb4" d="M 77.5,70.5 C 78.8333,72.1667 78.8333,73.8333 77.5,75.5C 77.5,73.8333 77.5,72.1667 77.5,70.5 Z"/></g>
<g><path style="opacity:0.008" fill="#47100d" d="M 12.5,75.5 C 12.1034,76.525 11.4368,76.6917 10.5,76C 11.0944,75.5357 11.7611,75.369 12.5,75.5 Z"/></g>
<g><path style="opacity:0.999" fill="#1e4142" d="M 12.5,75.5 C 12.5,75.1667 12.5,74.8333 12.5,74.5C 31.1667,74.5 49.8333,74.5 68.5,74.5C 68.4226,75.7498 67.756,76.5831 66.5,77C 56.5,77.3333 46.5,77.6667 36.5,78C 48.4005,80.5993 60.4005,82.4327 72.5,83.5C 72.5,83.8333 72.5,84.1667 72.5,84.5C 71.1667,84.8333 71.1667,85.1667 72.5,85.5C 72.1583,86.3382 71.4916,86.6716 70.5,86.5C 67.0146,86.0453 63.3479,85.8786 59.5,86C 61.1667,85.6667 62.8333,85.3333 64.5,85C 60.8865,84.0642 57.2198,83.5642 53.5,83.5C 50.0915,82.0966 46.4248,81.4299 42.5,81.5C 40.7354,80.5386 38.7354,80.2053 36.5,80.5C 31.1103,78.6247 25.4436,77.6247 19.5,77.5C 17.4006,76.3882 15.0673,75.7215 12.5,75.5 Z"/></g>
<g><path style="opacity:0.008" fill="#0c3738" d="M 19.5,77.5 C 18.3991,78.5983 17.0657,78.765 15.5,78C 16.7932,77.51 18.1266,77.3433 19.5,77.5 Z"/></g>
<g><path style="opacity:0.012" fill="#203a38" d="M 20.5,79.5 C 21.9464,78.3871 23.6131,78.2204 25.5,79C 23.8659,79.4935 22.1992,79.6602 20.5,79.5 Z"/></g>
<g><path style="opacity:0.008" fill="#3b8fbc" d="M 76.5,75.5 C 76.8333,75.5 77.1667,75.5 77.5,75.5C 77.7845,77.4147 77.4511,79.0813 76.5,80.5C 76.5,78.8333 76.5,77.1667 76.5,75.5 Z"/></g>
<g><path style="opacity:0.997" fill="#135a67" d="M 68.5,74.5 C 68.8333,74.5 69.1667,74.5 69.5,74.5C 70.3527,77.368 71.686,80.0347 73.5,82.5C 73.5,82.8333 73.5,83.1667 73.5,83.5C 73.1667,83.5 72.8333,83.5 72.5,83.5C 60.4005,82.4327 48.4005,80.5993 36.5,78C 46.5,77.6667 56.5,77.3333 66.5,77C 67.756,76.5831 68.4226,75.7498 68.5,74.5 Z"/></g>
<g><path style="opacity:0.012" fill="#1d3e40" d="M 36.5,80.5 C 35.0536,81.6129 33.3869,81.7796 31.5,81C 33.1341,80.5065 34.8008,80.3398 36.5,80.5 Z"/></g>
<g><path style="opacity:0.008" fill="#204342" d="M 42.5,81.5 C 41.3991,82.5983 40.0657,82.765 38.5,82C 39.7932,81.51 41.1266,81.3433 42.5,81.5 Z"/></g>
<g><path style="opacity:0.008" fill="#287183" d="M 75.5,80.5 C 75.8333,80.5 76.1667,80.5 76.5,80.5C 76.6716,81.4916 76.3382,82.1583 75.5,82.5C 75.5,81.8333 75.5,81.1667 75.5,80.5 Z"/></g>
<g><path style="opacity:0.008" fill="#026875" d="M 74.5,82.5 C 74.8333,82.5 75.1667,82.5 75.5,82.5C 75.3147,83.1701 74.9813,83.1701 74.5,82.5 Z"/></g>
<g><path style="opacity:0.012" fill="#1c464a" d="M 53.5,83.5 C 52.0536,84.6129 50.3869,84.7796 48.5,84C 50.1341,83.5065 51.8008,83.3398 53.5,83.5 Z"/></g>
<g><path style="opacity:0.004" fill="#207190" d="M 73.5,83.5 C 73.8333,83.5 74.1667,83.5 74.5,83.5C 74.3147,84.1701 73.9813,84.1701 73.5,83.5 Z"/></g>
<g><path style="opacity:0.008" fill="#053440" d="M 72.5,84.5 C 72.8333,84.5 73.1667,84.5 73.5,84.5C 73.3147,85.1701 72.9813,85.1701 72.5,84.5 Z"/></g>
<g><path style="opacity:0.008" fill="#1c3d3c" d="M 70.5,86.5 C 69.3991,87.5983 68.0657,87.765 66.5,87C 67.7932,86.51 69.1266,86.3433 70.5,86.5 Z"/></g>
</svg>
