<?xml version="1.0" standalone="no"?><!DOCTYPE svg PUBLIC "-//W3C//DTD SVG 1.1//EN" "http://www.w3.org/Graphics/SVG/1.1/DTD/svg11.dtd"><svg t="1728724302529" class="icon" viewBox="0 0 1024 1024" version="1.1" xmlns="http://www.w3.org/2000/svg" p-id="68977" xmlns:xlink="http://www.w3.org/1999/xlink" width="200" height="200"><path d="M68.266667 102.4a102.4 102.4 0 0 1 102.4-102.4h583.338666a68.266667 68.266667 0 0 1 51.541334 23.586133l133.461333 154.180267A68.266667 68.266667 0 0 1 955.733333 222.446933V921.6a102.4 102.4 0 0 1-102.4 102.4H170.666667a102.4 102.4 0 0 1-102.4-102.4z" fill="#FBD564" p-id="68978"></path><path d="M68.266667 648.533333h887.466666v273.066667a102.4 102.4 0 0 1-102.4 102.4H170.666667a102.4 102.4 0 0 1-102.4-102.4v-273.066667z" fill="#EBB100" p-id="68979"></path><path d="M224.802133 921.6h35.362134v-71.68h62.839466v-29.627733H260.164267v-46.114134h73.591466v-29.3888H224.802133z m139.946667 0h106.871467v-29.627733h-71.68V744.789333h-35.362134z m169.745067-72.874667l5.256533-19.285333a1273.514667 1273.514667 0 0 0 15.0528-57.821867h0.955733c5.256533 19.114667 10.0352 39.424 15.530667 57.821867l5.256533 19.3536zM596.616533 921.6h37.034667L576.853333 744.789333h-41.642666L478.583467 921.6h35.84l12.424533-45.397333h57.344z m127.010134 3.413333a71.68 71.68 0 0 0 56.456533-26.112l-18.6368-21.981866a49.152 49.152 0 0 1-36.522667 17.373866c-27.989333 0-46.148267-23.108267-46.148266-61.44s20.0704-60.928 46.830933-60.928a45.602133 45.602133 0 0 1 32.494933 14.813867l18.6368-22.459733a72.123733 72.123733 0 0 0-51.848533-22.698667 83.933867 83.933867 0 0 0-82.158933 92.330667A81.408 81.408 0 0 0 723.626667 925.013333z" fill="#FFFFFF" p-id="68980"></path><path d="M512 324.266667L307.2 443.733333V204.8z" fill="#FFFFFF" p-id="68981"></path></svg>