<?xml version="1.0" encoding="UTF-8"?>
<!DOCTYPE svg PUBLIC "-//W3C//DTD SVG 1.1//EN" "http://www.w3.org/Graphics/SVG/1.1/DTD/svg11.dtd">
<svg xmlns="http://www.w3.org/2000/svg" version="1.1" width="48px" height="48px" style="shape-rendering:geometricPrecision; text-rendering:geometricPrecision; image-rendering:optimizeQuality; fill-rule:evenodd; clip-rule:evenodd" xmlns:xlink="http://www.w3.org/1999/xlink">
<g><path style="opacity:0.998" fill="#ff3c7a" d="M 27.5,4.5 C 27.335,7.8499 27.5017,11.1832 28,14.5C 31.3936,15.4558 34.8936,15.7892 38.5,15.5C 38.5,24.5 38.5,33.5 38.5,42.5C 28.5,42.5 18.5,42.5 8.5,42.5C 8.5,29.8333 8.5,17.1667 8.5,4.5C 14.8333,4.5 21.1667,4.5 27.5,4.5 Z"/></g>
<g><path style="opacity:1" fill="#ffced5" d="M 27.5,4.5 C 31.5,7.83333 35.1667,11.5 38.5,15.5C 34.8936,15.7892 31.3936,15.4558 28,14.5C 27.5017,11.1832 27.335,7.8499 27.5,4.5 Z"/></g>
<g><path style="opacity:1" fill="#ffcdd4" d="M 17.5,26.5 C 17.719,27.675 17.3857,28.675 16.5,29.5C 15.5726,27.8872 14.7393,26.2205 14,24.5C 13.6667,26.1667 13.3333,27.8333 13,29.5C 12.1816,26.7728 12.3483,24.1062 13.5,21.5C 14.8347,23.2012 16.168,24.8679 17.5,26.5 Z"/></g>
<g><path style="opacity:1" fill="#ffc5cf" d="M 17.5,26.5 C 16.7564,23.0504 18.0897,21.3838 21.5,21.5C 21.8134,24.2469 21.48,26.9135 20.5,29.5C 19.7022,27.9223 19.2022,26.2556 19,24.5C 18.7216,25.4158 18.2216,26.0825 17.5,26.5 Z"/></g>
<g><path style="opacity:1" fill="#ffd3d8" d="M 23.5,21.5 C 27.6759,20.8307 29.0093,22.3307 27.5,26C 26.552,26.4828 25.552,26.6495 24.5,26.5C 24.6495,27.552 24.4828,28.552 24,29.5C 23.5026,26.854 23.3359,24.1873 23.5,21.5 Z"/></g>
<g><path style="opacity:1" fill="#ff759c" d="M 24.5,22.5 C 27.6741,22.9522 28.0075,23.9522 25.5,25.5C 24.6143,24.675 24.281,23.675 24.5,22.5 Z"/></g>
<g><path style="opacity:1" fill="#ffcad2" d="M 30.5,22.5 C 31.5676,21.5655 32.901,21.2322 34.5,21.5C 33.8505,23.4771 33.8505,25.3105 34.5,27C 33.9407,29.1875 32.6073,29.8542 30.5,29C 34.5,27.6667 34.5,26.3333 30.5,25C 33.1125,23.9288 33.1125,23.0955 30.5,22.5 Z"/></g>
</svg>
